# AST/ASF file generated using VICON BodyLanguage
# -----------------------------------------------
:version 1.10
:name VICON
:units
  mass 1.0
  length 0.45
  angle deg
:documentation
   .ast/.asf automatically generated from VICON data using
   VICON BodyBuilder and BodyLanguage model FoxedUp or BRILLIANT.MOD
:root
   order TX TY TZ RX RY RZ
   axis XYZ
   position 0 0 0  
   orientation 0 0 0 
:bonedata
  begin
     id 1 
     name lhipjoint
     direction 0.558404 -0.748506 0.357664 
     length 2.4234 
     axis 0 0 0  XYZ
  end
  begin
     id 2 
     name lfemur
     direction 0.34202 -0.939693 0  
     length 7.14567  
     axis 0 0 20  XYZ
    dof rx ry rz
    limits (-160.0 20.0)
           (-70.0 70.0)
           (-60.0 70.0)
  end
  begin
     id 3 
     name ltibia
     direction 0.34202 -0.939693 0   
     length 8.13956   
     axis 0 0 20   XYZ
    dof rx
    limits (-10.0 170.0)
  end
  begin
     id 4 
     name lfoot
     direction 0.0791314 -0.217412 0.972867   
     length 2.00134   
     axis -90 7.62852e-016 20   XYZ
    dof rx rz
    limits (-45.0 90.0)
           (-70.0 20.0)
  end
  begin
     id 5 
     name ltoes
     direction 1.53547e-011 -4.21922e-011 1   
     length 1.00735   
     axis -90 7.62852e-016 20   XYZ
    dof rx
    limits (-90.0 20.0)
  end
  begin
     id 6 
     name rhipjoint
     direction -0.496392 -0.78327 0.374276   
     length 2.31584  
     axis 0 0 0  XYZ 
  end
  begin
     id 7 
     name rfemur
     direction -0.34202 -0.939693 0   
     length 7.47417   
     axis 0 0 -20   XYZ
    dof rx ry rz
    limits (-160.0 20.0)
           (-70.0 70.0)
           (-70.0 60.0)
  end
  begin
     id 8 
     name rtibia
     direction -0.34202 -0.939693 0   
     length 7.69071   
     axis 0 0 -20   XYZ
    dof rx
    limits (-10.0 170.0)
 end
 begin
     id 9 
     name rfoot
     direction -0.103069 -0.28318 0.953512   
     length 2.16135  
     axis -90 -7.62852e-016 -20   XYZ
    dof rx rz
    limits (-45.0 90.0)
           (-20.0 70.0)
  end
  begin
     id 10 
     name rtoes
     direction -1.53581e-011 -4.21904e-011 1   
     length 1.07867   
     axis -90 -7.62852e-016 -20   XYZ
    dof rx
    limits (-90.0 20.0)
  end
  begin
     id 11 
     name lowerback
     direction -0.0258961 0.994776 -0.0987407   
     length 2.19412   
     axis 0 0 0   XYZ
    dof rx ry rz
    limits (-20.0 45.0)
           (-30.0 30.0)
           (-30.0 30.0)
  end
  begin
     id 12 
     name upperback
     direction 0.0402454 0.999185 0.00320666   
     length 2.18445   
     axis 0 0 0   XYZ
    dof rx ry rz
    limits (-20.0 45.0)
           (-30.0 30.0)
           (-30.0 30.0)
  end
  begin
     id 13 
     name thorax
     direction 0.0519376 0.997415 0.0496558   
     length 2.21487   
     axis 0 0 0   XYZ
    dof rx ry rz
    limits (-20.0 45.0)
           (-30.0 30.0)
           (-30.0 30.0)
  end
  begin
     id 14 
     name lowerneck
     direction -0.0921276 0.983211 0.157506   
     length 1.61201   
     axis 0 0 0   XYZ
    dof rx ry rz
    limits (-20.0 45.0)
           (-30.0 30.0)
           (-30.0 30.0)
  end
  begin
     id 15 
     name upperneck
     direction 0.0820814 0.98162 -0.172292   
     length 1.65275   
     axis 0 0 0   XYZ
    dof rx ry rz
    limits (-20.0 45.0)
           (-30.0 30.0)
           (-30.0 30.0)
  end
  begin
     id 16
     name head
     direction 0.0336554 0.996413 -0.0776455  
     length 1.66415  
     axis 0 0 0   XYZ
    dof rx ry rz
    limits (-20.0 45.0)
           (-30.0 30.0)
           (-30.0 30.0)
  end
  begin
     id 17 
     name lclavicle
     direction 0.94696 0.284418 -0.149576  
     length 3.41447  
     axis 0 0 0   XYZ
    dof ry rz
    limits (-20.0 10.0)
           (0.0 20.0)
  end
  begin
     id 18 
     name lhumerus
     direction 1 -0.000130264 -9.81312e-005   
     length 5.19964   
     axis 180 -30 -90   XYZ
    dof rx ry rz
    limits (-60.0 90.0)
           (-90.0 90.0)
           (-90.0 90.0)
  end
  begin
     id 19
     name lradius
     direction 1 -4.48961e-011 1.43854e-026   
     length 3.32189   
     axis 180 -30 -90   XYZ
    dof rx
    limits (-10.0 170.0)
  end
  begin
     id 20
     name lwrist
     direction 1 -4.48958e-011 3.1502e-026   
     length 1.66095   
     axis -1.97692e-014 90 90   XYZ
    dof ry
    limits (-180.0 0.0)
 end
  begin
     id 21 
     name lhand
     direction 1 -4.48927e-011 6.3004e-026   
     length 0.645616   
     axis -4.02019e-014 90 90   XYZ
    dof rx rz
    limits (-90.0 90.0)
           (-45.0 45.0)
  end
  begin
     id 22 
     name lfingers
     direction 1 -4.4904e-011 1.26008e-025   
     length 0.520512   
     axis -8.04039e-014 90 90   XYZ
    dof rx
    limits (0.0 90.0)
  end
  begin
     id 23
     name lthumb
     direction 0.707107 -6.34947e-011 0.707107   
     length 0.747354   
     axis -90 45 2.85299e-015   XYZ
    dof rx rz
    limits (-45.0 45.0)
           (-45.0 45.0)
  end
  begin
     id 24 
     name rclavicle
     direction -0.909391 0.383475 -0.161107   
     length 3.25176  
     axis 0 0 0   XYZ 
    dof ry rz
    limits (-10.0 20.0)
           (-20.0 0.0)
  end
  begin
     id 25 
     name rhumerus
     direction -1 -4.48965e-011 -1.81384e-027  
     length 5.6595   
     axis 180 30 90   XYZ
    dof rx ry rz
    limits (-90.0 60.0)
           (-90.0 90.0)
           (-90.0 90.0)
  end
  begin
     id 26 
     name rradius
     direction -1 -4.48996e-011 -8.09397e-027   
     length 3.37604   
     axis 180 30 90   XYZ
    dof rx
    limits (-10.0 170.0)
  end
  begin
     id 27 
     name rwrist
     direction -1 -4.48927e-011 -1.56669e-026   
     length 1.68802   
     axis 1.21142e-014 -90 -90   XYZ
    dof ry
    limits (-180.0 0.0)
  end
  begin
     id 28
     name rhand
     direction -1 -4.48912e-011 -3.13339e-026   
     length 0.824702   
     axis 1.99937e-014 -90 -90   XYZ
    dof rx rz
    limits (-90.0 90.0)
           (-45.0 45.0)
  end
  begin
     id 29
     name rfingers
     direction -1 -4.49011e-011 -6.26677e-026   
     length 0.664896   
     axis 3.99874e-014 -90 -90   XYZ
    dof rx
    limits (0.0 90.0)
  end
  begin
     id 30
     name rthumb
     direction -0.707107 -6.34931e-011 0.707107   
     length 0.954662   
     axis -90 -45 -2.85299e-015   XYZ
    dof rx rz
    limits (-45.0 45.0)
           (-45.0 45.0)
  end
:hierarchy
  begin
    root lhipjoint rhipjoint lowerback
    lhipjoint lfemur
    lfemur ltibia
    ltibia lfoot
    lfoot ltoes
    rhipjoint rfemur
    rfemur rtibia
    rtibia rfoot
    rfoot rtoes
    lowerback upperback
    upperback thorax
    thorax lowerneck lclavicle rclavicle
    lowerneck upperneck
    upperneck head
    lclavicle lhumerus
    lhumerus lradius
    lradius lwrist
    lwrist lhand lthumb
    lhand lfingers
    rclavicle rhumerus
    rhumerus rradius
    rradius rwrist
    rwrist rhand rthumb
    rhand rfingers
  end

#!OML:ASF F:\VICON\USERDATA\INSTALL\rory3\rory3.ASF
:FULLY-SPECIFIED
:DEGREES
388
root 4.11868 15.3423 4.62097 -8.19426 5.97515 2.87875
lowerback 15.5841 -13.4002 -3.78935
upperback 3.43483 -18.0576 7.40902
thorax -1.03782 -9.26274 12.4501
lowerneck -9.43747 1.22085 -8.78973
upperneck 22.156 1.44839 7.6463
head 8.25804 0.664902 4.19936
rclavicle -1.24837e-013 3.18055e-014
rhumerus -58.4856 -24.1286 -46.2479
rradius 20.4321
rwrist 5.5912
rhand -12.4736 17.6954
rfingers 7.12502
rthumb 13.6006 -11.8404
lclavicle -1.24837e-013 3.18055e-014
lhumerus 70.0886 -73.382 64.1976
lradius 48.0459
lwrist 1.24675
lhand -11.7845 21.8409
lfingers 7.12502
lthumb 14.2647 51.3309
rfemur -55.0391 7.47217 34.5184
rtibia 63.2035
rfoot 10.2245 0.861571
rtoes 14.2969
lfemur -18.1469 17.3099 -45.9235
ltibia 56.0328
lfoot -20.5838 -11.2778
ltoes 36.5312
389
root 4.1801 15.3985 4.70634 -7.70865 7.07288 3.88596
lowerback 14.453 -13.5116 -4.44342
upperback 3.35199 -18.3289 7.07497
thorax -0.397563 -9.43028 12.1013
lowerneck -9.32567 1.07992 -8.70654
upperneck 21.7431 1.22031 7.77823
head 8.11868 0.582911 4.19513
rclavicle -1.4392e-013 9.06458e-014
rhumerus -59.2969 -26.4229 -43.6489
rradius 19.4911
rwrist 7.90808
rhand -11.5434 18.0233
rfingers 7.12502
rthumb 14.497 -11.4502
lclavicle -1.4392e-013 9.06458e-014
lhumerus 77.4636 -73.9843 57.077
lradius 49.1594
lwrist 2.02622
lhand -11.3462 20.8842
lfingers 7.12502
lthumb 14.687 50.344
rfemur -53.7489 6.21189 33.9855
rtibia 63.6348
rfoot 10.0114 0.957392
rtoes 12.5161
lfemur -17.1998 18.1012 -46.8325
ltibia 54.9815
lfoot -19.8866 -12.9581
ltoes 37.8171
390
root 4.21643 15.3957 4.73866 -6.35586 7.64245 2.58549
lowerback 13.2605 -13.6419 -3.06535
upperback 2.90259 -18.2804 7.72202
thorax -0.474846 -9.37977 11.8649
lowerneck -9.1543 0.941578 -8.89521
upperneck 21.3794 0.990314 8.13181
head 7.98087 0.496236 4.31365
rclavicle 1.18476e-013 -3.97569e-014
rhumerus -59.6085 -27.4413 -42.3315
rradius 18.9089
rwrist 8.43094
rhand -10.9585 18.4017
rfingers 7.12502
rthumb 15.0605 -11.0304
lclavicle 1.18476e-013 -3.97569e-014
lhumerus 83.9082 -74.3017 50.9159
lradius 50.2536
lwrist 2.67052
lhand -11.4303 20.3439
lfingers 7.12502
lthumb 14.6059 49.8095
rfemur -53.7604 6.24452 35.6991
rtibia 63.729
rfoot 10.4198 0.324046
rtoes 12.2365
lfemur -18.401 17.2065 -45.987
ltibia 54.5604
lfoot -19.1438 -13.2033
ltoes 37.694
391
root 4.29155 15.4536 4.77668 -5.41297 8.37288 3.41224
lowerback 12.819 -13.5677 -3.57078
upperback 2.30324 -18.237 7.77359
thorax -0.727341 -9.33017 12.1305
lowerneck -9.09824 0.78781 -8.87055
upperneck 21.2648 0.791588 8.05891
head 7.95304 0.398987 4.26327
rclavicle 4.77083e-014 -3.18055e-015
rhumerus -59.3186 -26.6498 -42.8879
rradius 18.9751
rwrist 6.45917
rhand -10.3144 18.6566
rfingers 7.12502
rthumb 15.6809 -10.728
lclavicle 4.77083e-014 -3.18055e-015
lhumerus 89.312 -74.5417 45.9044
lradius 51.3879
lwrist 3.31294
lhand -11.3958 19.6815
lfingers 7.12502
lthumb 14.6392 49.1448
rfemur -52.9846 5.54949 34.8894
rtibia 63.7319
rfoot 11.6795 0.682572
rtoes 12.0719
lfemur -18.227 18.2196 -46.9226
ltibia 53.6495
lfoot -18.577 -14.9747
ltoes 38.2896
392
root 4.35131 15.5085 4.84076 -4.63074 9.0867 3.16436
lowerback 11.9742 -13.5438 -3.2324
upperback 1.88007 -18.1506 8.13122
thorax -0.738688 -9.27657 12.1731
lowerneck -8.99304 0.560538 -8.82473
upperneck 21.0308 0.531904 7.78776
head 7.88508 0.25711 4.13265
rclavicle 1.24837e-013 -2.22639e-014
rhumerus -59.1799 -26.4491 -42.9202
rradius 19.0386
rwrist 5.35625
rhand -10.1489 18.1616
rfingers 7.12502
rthumb 15.8403 -11.2104
lclavicle 1.24837e-013 -2.22639e-014
lhumerus 94.5886 -74.6328 40.9989
lradius 52.5477
lwrist 3.985
lhand -10.8974 18.6995
lfingers 7.12502
lthumb 15.1193 48.1273
rfemur -51.9872 5.30449 35.0535
rtibia 63.4392
rfoot 13.2524 1.33722
rtoes 9.08336
lfemur -18.2083 18.7633 -46.6937
ltibia 53.0927
lfoot -18.0597 -16.3791
ltoes 39.0539
393
root 4.42199 15.5497 4.8966 -3.75898 10.2267 3.09689
lowerback 11.1055 -13.5578 -2.96499
upperback 1.41095 -18.1253 8.51399
thorax -0.738969 -9.25473 12.277
lowerneck -8.96289 0.304621 -9.17596
upperneck 20.7647 0.216842 7.96275
head 7.81935 0.101796 4.21708
rclavicle 9.06458e-014 4.45278e-014
rhumerus -59.7934 -28.432 -40.3685
rradius 18.5733
rwrist 7.30774
rhand -10.5196 17.0294
rfingers 7.12502
rthumb 15.4833 -12.3706
lclavicle 9.06458e-014 4.45278e-014
lhumerus 99.7304 -74.6125 36.432
lradius 53.4372
lwrist 4.41263
lhand -9.96964 17.1542
lfingers 7.12502
lthumb 16.0129 46.5125
rfemur -51.258 4.61508 34.8041
rtibia 63.1733
rfoot 14.8622 2.61508
rtoes 6.87071
lfemur -17.9781 18.5944 -46.8309
ltibia 52.1999
lfoot -17.4918 -17.3519
ltoes 39.4805
394
root 4.48868 15.5896 4.95299 -2.94648 11.2713 2.78954
lowerback 10.9499 -13.6563 -2.61878
upperback 0.429 -18.1578 9.12701
thorax -1.59617 -9.2068 12.8899
lowerneck -8.35311 0.301247 -10.0287
upperneck 20.6982 0.214403 8.38753
head 7.68127 0.0645919 4.49749
rclavicle -3.97569e-014 5.40694e-014
rhumerus -58.7268 -25.6902 -42.6736
rradius 19.483
rwrist 3.02662
rhand -10.8919 15.0374
rfingers 7.12502
rthumb 15.1246 -14.39
lclavicle -3.97569e-014 5.40694e-014
lhumerus 100.378 -75.1424 36.6193
lradius 53.8592
lwrist 4.49454
lhand -8.9752 15.3482
lfingers 7.12502
lthumb 16.9703 44.6269
rfemur -50.409 4.28623 34.6588
rtibia 62.7369
rfoot 16.3043 3.2911
rtoes 13.7699
lfemur -17.8555 18.55 -46.6711
ltibia 51.4672
lfoot -17.0033 -18.3484
ltoes 39.5241
395
root 4.55417 15.6187 5.01876 -2.21995 12.2713 2.85688
lowerback 10.3392 -13.7233 -2.69961
upperback -0.0800271 -18.2476 9.45512
thorax -1.6574 -9.24235 13.1854
lowerneck -9.04057 -0.10571 -9.35624
upperneck 21.0714 -0.152347 7.1601
head 7.97994 -0.163098 3.95229
rclavicle 6.67916e-014 -9.22361e-014
rhumerus -58.0533 -24.917 -43.3484
rradius 19.8108
rwrist 0.850118
rhand -10.7297 14.2464
rfingers 7.12502
rthumb 15.2809 -15.1691
lclavicle 6.67916e-014 -9.22361e-014
lhumerus 102.942 -75.1833 34.4292
lradius 54.3529
lwrist 4.96011
lhand -8.24476 14.0324
lfingers 7.12502
lthumb 17.6733 43.2492
rfemur -49.3281 4.11541 34.0737
rtibia 62.2395
rfoot 16.6006 6.70721
rtoes 23.8139
lfemur -17.5211 18.5717 -46.8318
ltibia 50.7119
lfoot -16.4276 -19.3244
ltoes 39.8432
396
root 4.62744 15.6365 5.08392 -1.46799 13.4283 3.42017
lowerback 9.54771 -13.7402 -3.06773
upperback -0.476164 -18.319 9.50549
thorax -1.51244 -9.27526 13.2452
lowerneck -8.44503 -0.289243 -9.77283
upperneck 20.293 -0.449884 7.61012
head 7.64002 -0.291274 4.12452
rclavicle 5.00937e-014 2.22639e-014
rhumerus -57.7975 -24.8822 -43.3817
rradius 20.0158
rwrist -0.0507562
rhand -10.6091 13.8255
rfingers 7.12502
rthumb 15.397 -15.5811
lclavicle 5.00937e-014 2.22639e-014
lhumerus 107.522 -74.952 29.8941
lradius 55.0225
lwrist 5.75514
lhand -8.24595 13.9568
lfingers 7.12502
lthumb 17.6722 43.1737
rfemur -48.1687 3.64263 33.0006
rtibia 61.5635
rfoot 14.2633 13.8415
rtoes 33.3932
lfemur -16.977 18.4462 -47.4861
ltibia 49.9692
lfoot -15.6969 -20.3754
ltoes 41.0361
397
root 4.70617 15.6673 5.14714 -0.839306 14.5329 3.3833
lowerback 8.77599 -13.6793 -2.70197
upperback -0.959552 -18.1805 9.67549
thorax -1.70481 -9.1781 13.1128
lowerneck -8.01432 -0.555778 -9.9915
upperneck 19.8659 -0.848603 7.83613
head 7.46093 -0.477356 4.19051
rclavicle -2.74323e-014 5.08889e-014
rhumerus -57.9195 -24.7981 -43.0788
rradius 20.2106
rwrist -0.608114
rhand -10.5905 13.6742
rfingers 7.12502
rthumb 15.415 -15.731
lclavicle -2.74323e-014 5.08889e-014
lhumerus 111.903 -74.9479 25.6414
lradius 55.6231
lwrist 6.47524
lhand -8.58466 14.4286
lfingers 7.12502
lthumb 17.3462 43.6746
rfemur -46.8348 3.31554 32.536
rtibia 60.2673
rfoot 11.5604 20.8481
rtoes 42.6312
lfemur -16.3836 18.5267 -47.4639
ltibia 49.0128
lfoot -14.7098 -21.6116
ltoes 42.2409
